<svg width="400" height="400" viewBox="0 0 400 400" fill="none" xmlns="http://www.w3.org/2000/svg">
<rect width="400" height="400" rx="96" fill="black"/>
<path fill-rule="evenodd" clip-rule="evenodd" d="M238.615 284.424C263.592 294.144 290.172 299.138 317 299.138V83L100.862 83C100.862 109.828 105.856 136.408 115.576 161.385C96.284 177.412 84 201.584 84 228.625C84 276.881 123.119 316 171.375 316C198.416 316 222.588 303.716 238.615 284.424ZM238.615 284.424C251.189 269.289 258.75 249.84 258.75 228.625C258.75 180.369 219.631 141.25 171.375 141.25C150.16 141.25 130.711 148.811 115.576 161.385C116.14 162.833 116.719 164.275 117.314 165.712C128.176 191.936 144.097 215.762 164.167 235.833C184.238 255.903 208.064 271.824 234.288 282.686C235.725 283.281 237.167 283.86 238.615 284.424Z" fill="white"/>
</svg>
