<svg
  width="356"
  height="62"
  viewBox="0 0 356 62"
  fill="none"
  xmlns="http://www.w3.org/2000/svg"
>
<path
    fill-rule="evenodd"
    clip-rule="evenodd"
    d="M40.8919 51.9911C47.4541 54.647 54.4683 56.0132 61.5503 56.0132V0.948732L6.48586 0.94873C6.48586 7.67401 7.71782 14.338 10.1163 20.6119C4.42266 24.6439 0.706055 31.2834 0.706055 38.7909C0.706055 51.0848 10.6722 61.051 22.9662 61.051C30.3186 61.051 36.8385 57.4864 40.8919 51.9911ZM40.8919 51.9911C43.6161 48.2978 45.2263 43.7324 45.2263 38.7909C45.2263 26.497 35.2601 16.5308 22.9662 16.5308C18.1798 16.5308 13.7463 18.0414 10.1163 20.6119C10.2968 21.0839 10.4838 21.5536 10.6774 22.021C13.4446 28.7017 17.5007 34.772 22.6139 39.8852C27.7271 44.9984 33.7973 49.0544 40.4781 51.8217C40.6158 51.8787 40.7538 51.9352 40.8919 51.9911Z"
    fill="white"
  />
<path
    d="M95.1499 47V20.135H86.4649V15.5H109.28V20.135H100.595V47H95.1499ZM111.703 47V24.275H116.653V35.255H115.663C115.753 32.885 116.128 30.875 116.788 29.225C117.478 27.545 118.438 26.27 119.668 25.4C120.928 24.53 122.443 24.095 124.213 24.095C124.453 24.095 124.708 24.11 124.978 24.14C125.248 24.14 125.488 24.17 125.698 24.23V29.27C124.318 29.27 123.073 29.375 121.963 29.585C120.883 29.795 119.968 30.185 119.218 30.755C118.468 31.295 117.898 32.075 117.508 33.095C117.118 34.085 116.923 35.39 116.923 37.01V47H111.703ZM137.371 47.405C135.841 47.405 134.446 47.135 133.186 46.595C131.926 46.025 130.831 45.215 129.901 44.165C129.001 43.115 128.296 41.87 127.786 40.43C127.306 38.99 127.066 37.385 127.066 35.615C127.066 33.275 127.486 31.235 128.326 29.495C129.196 27.725 130.396 26.36 131.926 25.4C133.486 24.41 135.271 23.915 137.281 23.915C138.811 23.915 140.161 24.2 141.331 24.77C142.531 25.31 143.536 26.105 144.346 27.155C145.186 28.205 145.816 29.45 146.236 30.89C146.686 32.3 146.911 33.875 146.911 35.615C146.911 37.955 146.536 40.01 145.786 41.78C145.036 43.55 143.941 44.93 142.501 45.92C141.091 46.91 139.381 47.405 137.371 47.405ZM138.586 43.22C139.816 43.22 140.896 42.92 141.826 42.32C142.786 41.69 143.521 40.805 144.031 39.665C144.571 38.525 144.841 37.175 144.841 35.615C144.841 34.445 144.691 33.395 144.391 32.465C144.091 31.535 143.656 30.74 143.086 30.08C142.546 29.42 141.886 28.925 141.106 28.595C140.356 28.235 139.516 28.055 138.586 28.055C137.356 28.055 136.276 28.37 135.346 29C134.416 29.6 133.681 30.47 133.141 31.61C132.631 32.72 132.376 34.055 132.376 35.615C132.376 37.175 132.631 38.525 133.141 39.665C133.681 40.805 134.416 41.69 135.346 42.32C136.276 42.92 137.356 43.22 138.586 43.22ZM144.976 47V37.055L145.696 35.525L144.976 32.24V24.275H149.971V47H144.976ZM164.783 47.405C162.323 47.405 160.253 46.91 158.573 45.92C156.923 44.93 155.663 43.55 154.793 41.78C153.953 40.01 153.533 37.97 153.533 35.66C153.533 33.35 153.968 31.31 154.838 29.54C155.738 27.77 157.028 26.39 158.708 25.4C160.388 24.38 162.413 23.87 164.783 23.87C166.673 23.87 168.368 24.215 169.868 24.905C171.398 25.595 172.643 26.57 173.603 27.83C174.593 29.09 175.193 30.575 175.403 32.285H170.363C170.153 31.415 169.793 30.665 169.283 30.035C168.773 29.405 168.143 28.925 167.393 28.595C166.643 28.265 165.833 28.1 164.963 28.1C163.643 28.1 162.533 28.43 161.633 29.09C160.733 29.72 160.058 30.605 159.608 31.745C159.158 32.855 158.933 34.16 158.933 35.66C158.933 37.16 159.143 38.48 159.563 39.62C160.013 40.76 160.673 41.66 161.543 42.32C162.413 42.95 163.538 43.265 164.918 43.265C166.358 43.265 167.528 42.875 168.428 42.095C169.358 41.285 169.973 40.145 170.273 38.675H175.313C175.103 40.475 174.548 42.035 173.648 43.355C172.748 44.675 171.548 45.68 170.048 46.37C168.578 47.06 166.823 47.405 164.783 47.405ZM188.124 47.54C186.744 47.54 185.559 47.405 184.569 47.135C183.609 46.865 182.814 46.415 182.184 45.785C181.584 45.155 181.149 44.3 180.879 43.22C180.609 42.14 180.474 40.775 180.474 39.125V15.815H185.559V39.035C185.559 40.235 185.679 41.15 185.919 41.78C186.159 42.41 186.549 42.83 187.089 43.04C187.629 43.25 188.364 43.355 189.294 43.355C189.864 43.355 190.479 43.295 191.139 43.175C191.799 43.025 192.369 42.77 192.849 42.41V46.82C192.549 46.97 192.114 47.09 191.544 47.18C190.974 47.3 190.374 47.39 189.744 47.45C189.144 47.51 188.604 47.54 188.124 47.54ZM176.154 28.145V24.275H192.849V28.145H176.154ZM207.011 47.45C204.611 47.45 202.511 46.955 200.711 45.965C198.911 44.945 197.516 43.55 196.526 41.78C195.566 40.01 195.086 37.97 195.086 35.66C195.086 33.32 195.566 31.265 196.526 29.495C197.516 27.725 198.911 26.345 200.711 25.355C202.511 24.365 204.611 23.87 207.011 23.87C209.441 23.87 211.541 24.365 213.311 25.355C215.111 26.345 216.506 27.725 217.496 29.495C218.486 31.265 218.981 33.32 218.981 35.66C218.981 37.97 218.486 40.01 217.496 41.78C216.506 43.55 215.111 44.945 213.311 45.965C211.541 46.955 209.441 47.45 207.011 47.45ZM207.011 43.22C208.421 43.22 209.606 42.905 210.566 42.275C211.556 41.615 212.306 40.73 212.816 39.62C213.356 38.48 213.626 37.16 213.626 35.66C213.626 34.55 213.476 33.53 213.176 32.6C212.906 31.64 212.486 30.83 211.916 30.17C211.346 29.51 210.641 29 209.801 28.64C208.991 28.28 208.061 28.1 207.011 28.1C205.631 28.1 204.446 28.415 203.456 29.045C202.466 29.675 201.716 30.56 201.206 31.7C200.696 32.84 200.441 34.16 200.441 35.66C200.441 37.16 200.696 38.48 201.206 39.62C201.716 40.73 202.466 41.615 203.456 42.275C204.446 42.905 205.631 43.22 207.011 43.22ZM222.551 47V24.275H227.501V35.255H226.511C226.601 32.885 226.976 30.875 227.636 29.225C228.326 27.545 229.286 26.27 230.516 25.4C231.776 24.53 233.291 24.095 235.061 24.095C235.301 24.095 235.556 24.11 235.826 24.14C236.096 24.14 236.336 24.17 236.546 24.23V29.27C235.166 29.27 233.921 29.375 232.811 29.585C231.731 29.795 230.816 30.185 230.066 30.755C229.316 31.295 228.746 32.075 228.356 33.095C227.966 34.085 227.771 35.39 227.771 37.01V47H222.551ZM239.218 47V12.98H244.438V32.105L243.313 35.48L244.168 39.665V47H239.218ZM251.953 47.405C250.453 47.405 249.103 47.12 247.903 46.55C246.703 45.98 245.698 45.185 244.888 44.165C244.078 43.115 243.448 41.87 242.998 40.43C242.578 38.96 242.368 37.355 242.368 35.615C242.368 33.275 242.743 31.235 243.493 29.495C244.243 27.725 245.338 26.36 246.778 25.4C248.248 24.41 249.988 23.915 251.998 23.915C253.498 23.915 254.863 24.2 256.093 24.77C257.353 25.31 258.433 26.105 259.333 27.155C260.263 28.175 260.968 29.405 261.448 30.845C261.928 32.285 262.168 33.875 262.168 35.615C262.168 37.985 261.733 40.055 260.863 41.825C260.023 43.565 258.838 44.93 257.308 45.92C255.778 46.91 253.993 47.405 251.953 47.405ZM250.648 43.22C251.908 43.22 253.003 42.92 253.933 42.32C254.863 41.69 255.583 40.805 256.093 39.665C256.603 38.525 256.858 37.175 256.858 35.615C256.858 34.055 256.603 32.72 256.093 31.61C255.583 30.47 254.863 29.6 253.933 29C253.003 28.37 251.908 28.055 250.648 28.055C249.418 28.055 248.338 28.37 247.408 29C246.478 29.6 245.743 30.47 245.203 31.61C244.693 32.72 244.438 34.055 244.438 35.615C244.438 36.785 244.588 37.85 244.888 38.81C245.188 39.74 245.608 40.535 246.148 41.195C246.718 41.855 247.378 42.365 248.128 42.725C248.908 43.055 249.748 43.22 250.648 43.22ZM276.214 47.405C273.754 47.405 271.639 46.91 269.869 45.92C268.129 44.93 266.794 43.55 265.864 41.78C264.934 40.01 264.469 37.97 264.469 35.66C264.469 33.35 264.904 31.325 265.774 29.585C266.674 27.815 267.979 26.435 269.689 25.445C271.429 24.425 273.514 23.915 275.944 23.915C278.344 23.915 280.369 24.41 282.019 25.4C283.699 26.36 284.974 27.725 285.844 29.495C286.714 31.265 287.149 33.335 287.149 35.705V37.01H268.069V33.455H283.324L282.424 35.075C282.424 33.575 282.154 32.285 281.614 31.205C281.104 30.095 280.369 29.255 279.409 28.685C278.449 28.085 277.324 27.785 276.034 27.785C274.834 27.785 273.739 28.07 272.749 28.64C271.789 29.18 271.024 30.02 270.454 31.16C269.884 32.3 269.599 33.77 269.599 35.57C269.599 37.28 269.884 38.72 270.454 39.89C271.024 41.03 271.819 41.9 272.839 42.5C273.859 43.07 274.999 43.355 276.259 43.355C277.309 43.355 278.224 43.19 279.004 42.86C279.784 42.5 280.429 42.035 280.939 41.465C281.449 40.895 281.809 40.265 282.019 39.575H286.924C286.654 41.105 286.054 42.455 285.124 43.625C284.224 44.795 283.024 45.725 281.524 46.415C280.024 47.075 278.254 47.405 276.214 47.405ZM299.703 47.405C298.173 47.405 296.778 47.135 295.518 46.595C294.258 46.025 293.163 45.215 292.233 44.165C291.333 43.115 290.628 41.87 290.118 40.43C289.638 38.99 289.398 37.385 289.398 35.615C289.398 33.275 289.818 31.235 290.658 29.495C291.528 27.725 292.728 26.36 294.258 25.4C295.818 24.41 297.603 23.915 299.613 23.915C301.143 23.915 302.493 24.2 303.663 24.77C304.863 25.31 305.868 26.105 306.678 27.155C307.518 28.205 308.148 29.45 308.568 30.89C309.018 32.3 309.243 33.875 309.243 35.615C309.243 37.955 308.868 40.01 308.118 41.78C307.368 43.55 306.273 44.93 304.833 45.92C303.423 46.91 301.713 47.405 299.703 47.405ZM300.918 43.22C302.148 43.22 303.228 42.92 304.158 42.32C305.118 41.69 305.853 40.805 306.363 39.665C306.903 38.525 307.173 37.175 307.173 35.615C307.173 34.445 307.023 33.395 306.723 32.465C306.423 31.535 305.988 30.74 305.418 30.08C304.878 29.42 304.218 28.925 303.438 28.595C302.688 28.235 301.848 28.055 300.918 28.055C299.688 28.055 298.608 28.37 297.678 29C296.748 29.6 296.013 30.47 295.473 31.61C294.963 32.72 294.708 34.055 294.708 35.615C294.708 37.175 294.963 38.525 295.473 39.665C296.013 40.805 296.748 41.69 297.678 42.32C298.608 42.92 299.688 43.22 300.918 43.22ZM307.308 47V37.055L308.028 35.525L307.308 32.24V24.275H312.303V47H307.308ZM317.17 47V24.275H322.12V34.67L320.905 34.715C320.905 32.435 321.25 30.5 321.94 28.91C322.63 27.29 323.59 26.045 324.82 25.175C326.08 24.305 327.535 23.87 329.185 23.87C330.445 23.87 331.555 24.065 332.515 24.455C333.475 24.845 334.285 25.43 334.945 26.21C335.605 26.96 336.115 27.905 336.475 29.045C336.835 30.155 337.03 31.43 337.06 32.87H334.855C335.095 30.89 335.62 29.24 336.43 27.92C337.27 26.57 338.335 25.565 339.625 24.905C340.945 24.215 342.355 23.87 343.855 23.87C345.115 23.87 346.24 24.08 347.23 24.5C348.22 24.89 349.06 25.475 349.75 26.255C350.44 27.035 350.95 28.01 351.28 29.18C351.64 30.32 351.82 31.655 351.82 33.185V47H346.6V34.715C346.6 33.455 346.495 32.42 346.285 31.61C346.075 30.77 345.76 30.11 345.34 29.63C344.95 29.15 344.485 28.805 343.945 28.595C343.405 28.385 342.79 28.28 342.1 28.28C341.26 28.28 340.45 28.55 339.67 29.09C338.89 29.6 338.26 30.455 337.78 31.655C337.3 32.825 337.06 34.415 337.06 36.425V47H331.93V34.715C331.93 33.455 331.81 32.42 331.57 31.61C331.36 30.77 331.06 30.11 330.67 29.63C330.28 29.15 329.815 28.805 329.275 28.595C328.735 28.385 328.15 28.28 327.52 28.28C326.65 28.28 325.825 28.55 325.045 29.09C324.265 29.6 323.62 30.455 323.11 31.655C322.63 32.825 322.39 34.415 322.39 36.425V47H317.17Z"
    fill="white"
  />
</svg>
