<svg width="546" height="63" viewBox="0 0 546 63" fill="none" xmlns="http://www.w3.org/2000/svg">
<g clip-path="url(#clip0_11_2)">
<path fill-rule="evenodd" clip-rule="evenodd" d="M40.8919 52.9911C47.4541 55.647 54.4683 57.0132 61.5503 57.0132V1.94873L6.48586 1.94873C6.48586 8.67401 7.71782 15.338 10.1163 21.6119C4.42266 25.6439 0.706055 32.2834 0.706055 39.7909C0.706055 52.0848 10.6722 62.051 22.9662 62.051C30.3186 62.051 36.8385 58.4864 40.8919 52.9911ZM40.8919 52.9911C43.6161 49.2978 45.2263 44.7324 45.2263 39.7909C45.2263 27.497 35.2601 17.5308 22.9662 17.5308C18.1798 17.5308 13.7463 19.0414 10.1163 21.6119C10.2968 22.0839 10.4838 22.5536 10.6774 23.021C13.4446 29.7017 17.5007 35.772 22.6139 40.8852C27.7271 45.9984 33.7973 50.0544 40.4781 52.8217C40.6158 52.8787 40.7538 52.9352 40.8919 52.9911Z" fill="white"/>
<path d="M102.11 59V13.1618H87.2912V5.25339H126.219V13.1618H111.4V59H102.11ZM130.354 59V20.2257H138.8V38.9602H137.111C137.264 34.9164 137.904 31.4869 139.03 28.6716C140.207 25.8051 141.845 23.6296 143.944 22.1452C146.094 20.6608 148.679 19.9185 151.699 19.9185C152.108 19.9185 152.544 19.9441 153.004 19.9953C153.465 19.9953 153.874 20.0465 154.233 20.1489V28.7483C151.878 28.7483 149.754 28.9275 147.86 29.2858C146.017 29.6441 144.456 30.3095 143.176 31.2821C141.897 32.2035 140.924 33.5343 140.259 35.2747C139.593 36.9639 139.26 39.1905 139.26 41.9546V59H130.354ZM174.149 59.691C171.538 59.691 169.158 59.2303 167.008 58.309C164.858 57.3364 162.99 55.9544 161.403 54.1628C159.868 52.3713 158.665 50.247 157.795 47.79C156.976 45.333 156.566 42.5945 156.566 39.5744C156.566 35.5818 157.283 32.1011 158.716 29.1322C160.2 26.1122 162.248 23.7832 164.858 22.1452C167.52 20.456 170.566 19.6114 173.995 19.6114C176.606 19.6114 178.909 20.0977 180.906 21.0703C182.953 21.9916 184.668 23.3481 186.05 25.1396C187.483 26.9312 188.558 29.0555 189.275 31.5125C190.043 33.9183 190.427 36.6056 190.427 39.5744C190.427 43.567 189.787 47.0734 188.507 50.0934C187.227 53.1135 185.359 55.4681 182.902 57.1573C180.496 58.8464 177.579 59.691 174.149 59.691ZM176.222 52.5504C178.321 52.5504 180.163 52.0385 181.75 51.0148C183.388 49.9399 184.642 48.4298 185.513 46.4847C186.434 44.5396 186.895 42.2362 186.895 39.5744C186.895 37.5781 186.639 35.7866 186.127 34.1998C185.615 32.613 184.873 31.2565 183.9 30.1304C182.979 29.0043 181.853 28.1597 180.522 27.5966C179.242 26.9824 177.809 26.6753 176.222 26.6753C174.123 26.6753 172.281 27.2127 170.694 28.2877C169.107 29.3114 167.853 30.7958 166.932 32.7409C166.061 34.6349 165.626 36.9127 165.626 39.5744C165.626 42.2362 166.061 44.5396 166.932 46.4847C167.853 48.4298 169.107 49.9399 170.694 51.0148C172.281 52.0385 174.123 52.5504 176.222 52.5504ZM187.125 59V42.0314L188.353 39.4209L187.125 33.8159V20.2257H195.648V59H187.125ZM220.921 59.691C216.724 59.691 213.192 58.8464 210.325 57.1573C207.51 55.4681 205.36 53.1135 203.876 50.0934C202.443 47.0734 201.726 43.5926 201.726 39.6512C201.726 35.7098 202.468 32.2291 203.953 29.209C205.488 26.189 207.689 23.8344 210.556 22.1452C213.422 20.4048 216.877 19.5346 220.921 19.5346C224.146 19.5346 227.038 20.1233 229.597 21.3006C232.208 22.4779 234.332 24.1415 235.97 26.2914C237.659 28.4412 238.683 30.975 239.041 33.8927H230.442C230.084 32.4082 229.469 31.1285 228.599 30.0536C227.729 28.9787 226.654 28.1597 225.374 27.5966C224.095 27.0336 222.713 26.752 221.228 26.752C218.976 26.752 217.082 27.3151 215.546 28.4412C214.011 29.5161 212.859 31.0262 212.091 32.9713C211.324 34.8652 210.94 37.0919 210.94 39.6512C210.94 42.2106 211.298 44.4628 212.015 46.4079C212.782 48.3531 213.908 49.8887 215.393 51.0148C216.877 52.0897 218.797 52.6272 221.151 52.6272C223.608 52.6272 225.605 51.9618 227.14 50.6309C228.727 49.2488 229.777 47.3037 230.288 44.7955H238.888C238.53 47.8668 237.583 50.5285 236.047 52.7808C234.511 55.033 232.464 56.7478 229.904 57.9251C227.396 59.1024 224.402 59.691 220.921 59.691ZM260.746 59.9214C258.392 59.9214 256.37 59.691 254.681 59.2303C253.043 58.7697 251.686 58.0018 250.611 56.9269C249.588 55.852 248.845 54.3931 248.385 52.5504C247.924 50.7077 247.694 48.3786 247.694 45.5633V5.79086H256.37V45.4098C256.37 47.4573 256.575 49.0185 256.984 50.0934C257.394 51.1684 258.059 51.885 258.98 52.2433C259.902 52.6016 261.156 52.7808 262.743 52.7808C263.715 52.7808 264.765 52.6784 265.891 52.4736C267.017 52.2177 267.989 51.7826 268.808 51.1684V58.6929C268.296 58.9488 267.554 59.1536 266.582 59.3071C265.609 59.5119 264.585 59.6654 263.51 59.7678C262.487 59.8702 261.565 59.9214 260.746 59.9214ZM240.323 26.8288V20.2257H268.808V26.8288H240.323ZM292.972 59.7678C288.877 59.7678 285.294 58.9232 282.223 57.234C279.152 55.4937 276.771 53.1135 275.082 50.0934C273.444 47.0734 272.625 43.5926 272.625 39.6512C272.625 35.6586 273.444 32.1523 275.082 29.1322C276.771 26.1122 279.152 23.7576 282.223 22.0684C285.294 20.3792 288.877 19.5346 292.972 19.5346C297.118 19.5346 300.701 20.3792 303.721 22.0684C306.793 23.7576 309.173 26.1122 310.862 29.1322C312.551 32.1523 313.396 35.6586 313.396 39.6512C313.396 43.5926 312.551 47.0734 310.862 50.0934C309.173 53.1135 306.793 55.4937 303.721 57.234C300.701 58.9232 297.118 59.7678 292.972 59.7678ZM292.972 52.5504C295.378 52.5504 297.4 52.0129 299.038 50.938C300.727 49.8119 302.007 48.3019 302.877 46.4079C303.798 44.4628 304.259 42.2106 304.259 39.6512C304.259 37.7573 304.003 36.0169 303.491 34.4301C303.03 32.7921 302.314 31.4101 301.341 30.284C300.369 29.1578 299.166 28.2877 297.733 27.6734C296.351 27.0592 294.764 26.752 292.972 26.752C290.618 26.752 288.596 27.2895 286.906 28.3644C285.217 29.4394 283.938 30.9494 283.067 32.8945C282.197 34.8396 281.762 37.0919 281.762 39.6512C281.762 42.2106 282.197 44.4628 283.067 46.4079C283.938 48.3019 285.217 49.8119 286.906 50.938C288.596 52.0129 290.618 52.5504 292.972 52.5504ZM319.487 59V20.2257H327.933V38.9602H326.243C326.397 34.9164 327.037 31.4869 328.163 28.6716C329.34 25.8051 330.978 23.6296 333.077 22.1452C335.227 20.6608 337.812 19.9185 340.832 19.9185C341.241 19.9185 341.676 19.9441 342.137 19.9953C342.598 19.9953 343.007 20.0465 343.366 20.1489V28.7483C341.011 28.7483 338.887 28.9275 336.993 29.2858C335.15 29.6441 333.589 30.3095 332.309 31.2821C331.029 32.2035 330.057 33.5343 329.391 35.2747C328.726 36.9639 328.393 39.1905 328.393 41.9546V59H319.487ZM347.926 59V0.953666H356.832V33.5855L354.913 39.3441L356.372 46.4847V59H347.926ZM369.655 59.691C367.095 59.691 364.792 59.2047 362.744 58.2322C360.697 57.2596 358.982 55.9032 357.6 54.1628C356.218 52.3713 355.143 50.247 354.375 47.79C353.659 45.2818 353.3 42.5433 353.3 39.5744C353.3 35.5818 353.94 32.1011 355.22 29.1322C356.5 26.1122 358.368 23.7832 360.825 22.1452C363.333 20.456 366.302 19.6114 369.731 19.6114C372.291 19.6114 374.62 20.0977 376.718 21.0703C378.868 21.9916 380.711 23.3481 382.247 25.1396C383.834 26.88 385.036 28.9787 385.855 31.4357C386.674 33.8927 387.084 36.6056 387.084 39.5744C387.084 43.6182 386.342 47.1502 384.857 50.1702C383.424 53.1391 381.402 55.4681 378.792 57.1573C376.181 58.8464 373.135 59.691 369.655 59.691ZM367.428 52.5504C369.578 52.5504 371.446 52.0385 373.033 51.0148C374.62 49.9399 375.848 48.4298 376.718 46.4847C377.589 44.5396 378.024 42.2362 378.024 39.5744C378.024 36.9127 377.589 34.6349 376.718 32.7409C375.848 30.7958 374.62 29.3114 373.033 28.2877C371.446 27.2127 369.578 26.6753 367.428 26.6753C365.329 26.6753 363.487 27.2127 361.9 28.2877C360.313 29.3114 359.059 30.7958 358.138 32.7409C357.267 34.6349 356.832 36.9127 356.832 39.5744C356.832 41.5707 357.088 43.3879 357.6 45.0259C358.112 46.6127 358.829 47.9691 359.75 49.0953C360.722 50.2214 361.849 51.0916 363.128 51.7058C364.459 52.2689 365.892 52.5504 367.428 52.5504ZM411.049 59.691C406.851 59.691 403.242 58.8464 400.222 57.1573C397.254 55.4681 394.976 53.1135 393.389 50.0934C391.802 47.0734 391.009 43.5926 391.009 39.6512C391.009 35.7098 391.751 32.2547 393.235 29.2858C394.771 26.2658 396.998 23.9111 399.915 22.222C402.884 20.4816 406.442 19.6114 410.588 19.6114C414.683 19.6114 418.138 20.456 420.953 22.1452C423.82 23.7832 425.995 26.1122 427.48 29.1322C428.964 32.1523 429.706 35.6842 429.706 39.728V41.9546H397.151V35.889H423.18L421.644 38.6531C421.644 36.0937 421.184 33.8927 420.262 32.0499C419.392 30.156 418.138 28.7227 416.5 27.7502C414.862 26.7264 412.942 26.2146 410.741 26.2146C408.694 26.2146 406.826 26.7008 405.136 27.6734C403.498 28.5948 402.193 30.028 401.221 31.9731C400.248 33.9183 399.762 36.4264 399.762 39.4977C399.762 42.4153 400.248 44.8723 401.221 46.8686C402.193 48.8137 403.55 50.2982 405.29 51.3219C407.03 52.2945 408.975 52.7808 411.125 52.7808C412.917 52.7808 414.478 52.4992 415.809 51.9362C417.14 51.3219 418.24 50.5285 419.111 49.556C419.981 48.5834 420.595 47.5085 420.953 46.3312H429.322C428.862 48.9417 427.838 51.2451 426.251 53.2414C424.716 55.2377 422.668 56.8245 420.109 58.0018C417.549 59.128 414.529 59.691 411.049 59.691ZM451.127 59.691C448.516 59.691 446.136 59.2303 443.986 58.309C441.836 57.3364 439.968 55.9544 438.381 54.1628C436.846 52.3713 435.643 50.247 434.773 47.79C433.954 45.333 433.544 42.5945 433.544 39.5744C433.544 35.5818 434.261 32.1011 435.694 29.1322C437.178 26.1122 439.226 23.7832 441.836 22.1452C444.498 20.456 447.544 19.6114 450.973 19.6114C453.584 19.6114 455.887 20.0977 457.884 21.0703C459.931 21.9916 461.646 23.3481 463.028 25.1396C464.461 26.9312 465.536 29.0555 466.253 31.5125C467.021 33.9183 467.404 36.6056 467.404 39.5744C467.404 43.567 466.765 47.0734 465.485 50.0934C464.205 53.1135 462.337 55.4681 459.88 57.1573C457.474 58.8464 454.556 59.691 451.127 59.691ZM453.2 52.5504C455.299 52.5504 457.141 52.0385 458.728 51.0148C460.366 49.9399 461.62 48.4298 462.49 46.4847C463.412 44.5396 463.873 42.2362 463.873 39.5744C463.873 37.5781 463.617 35.7866 463.105 34.1998C462.593 32.613 461.851 31.2565 460.878 30.1304C459.957 29.0043 458.831 28.1597 457.5 27.5966C456.22 26.9824 454.787 26.6753 453.2 26.6753C451.101 26.6753 449.259 27.2127 447.672 28.2877C446.085 29.3114 444.831 30.7958 443.91 32.7409C443.039 34.6349 442.604 36.9127 442.604 39.5744C442.604 42.2362 443.039 44.5396 443.91 46.4847C444.831 48.4298 446.085 49.9399 447.672 51.0148C449.259 52.0385 451.101 52.5504 453.2 52.5504ZM464.103 59V42.0314L465.331 39.4209L464.103 33.8159V20.2257H472.626V59H464.103ZM480.931 59V20.2257H489.376V37.962L487.303 38.0388C487.303 34.1486 487.892 30.847 489.069 28.1341C490.247 25.37 491.885 23.2457 493.983 21.7613C496.133 20.2769 498.616 19.5346 501.431 19.5346C503.581 19.5346 505.475 19.8674 507.113 20.5328C508.751 21.1982 510.133 22.1964 511.259 23.5272C512.385 24.8069 513.255 26.4193 513.87 28.3644C514.484 30.2584 514.816 32.4338 514.868 34.8908H511.105C511.515 31.5125 512.411 28.6972 513.793 26.4449C515.226 24.1415 517.043 22.4267 519.244 21.3006C521.496 20.1233 523.902 19.5346 526.462 19.5346C528.611 19.5346 530.531 19.8929 532.22 20.6096C533.909 21.275 535.343 22.2732 536.52 23.604C537.697 24.9349 538.567 26.5985 539.13 28.5948C539.745 30.5399 540.052 32.8177 540.052 35.4283V59H531.145V38.0388C531.145 35.889 530.966 34.123 530.608 32.7409C530.249 31.3077 529.712 30.1816 528.995 29.3626C528.33 28.5436 527.536 27.9549 526.615 27.5966C525.694 27.2383 524.644 27.0592 523.467 27.0592C522.034 27.0592 520.652 27.5198 519.321 28.4412C517.99 29.3114 516.915 30.7702 516.096 32.8177C515.277 34.814 514.868 37.527 514.868 40.9565V59H506.115V38.0388C506.115 35.889 505.91 34.123 505.5 32.7409C505.142 31.3077 504.63 30.1816 503.965 29.3626C503.299 28.5436 502.506 27.9549 501.585 27.5966C500.663 27.2383 499.665 27.0592 498.59 27.0592C497.106 27.0592 495.698 27.5198 494.367 28.4412C493.036 29.3114 491.936 30.7702 491.066 32.8177C490.247 34.814 489.837 37.527 489.837 40.9565V59H480.931Z" fill="white"/>
</g>
<defs>
<clipPath id="clip0_11_2">
<rect width="546" height="63" fill="white"/>
</clipPath>
</defs>
</svg>
